<svg xmlns="http://www.w3.org/2000/svg" width="37" height="37" viewBox="0 0 37 37" fill="none">
  <path d="M12.1175 6.65991C7.48672 6.65991 3.7 10.4004 3.7 15.008C3.7 24.4575 14.4213 29.4062 18.0375 32.398L18.5 32.7912L18.9625 32.398C22.5787 29.4062 33.3 24.4575 33.3 15.008C33.3 10.4004 29.5133 6.65991 24.8825 6.65991C22.3098 6.65991 20.0436 7.85374 18.5 9.66616C16.9564 7.85374 14.6902 6.65991 12.1175 6.65991ZM12.1175 8.13991C14.5341 8.13991 16.6355 9.36265 17.8756 11.2155L18.5 12.1405L19.1244 11.2155C20.3645 9.36265 22.4659 8.13991 24.8825 8.13991C28.7184 8.13991 31.82 11.2069 31.82 15.008C31.82 23.0729 22.7463 27.5938 18.5 30.918C14.2537 27.5938 5.18 23.0729 5.18 15.008C5.18 11.2069 8.27875 8.13991 12.1175 8.13991Z" fill="currentColor"/>
</svg>