<svg width="746" height="725" viewBox="0 0 746 725" fill="none" xmlns="http://www.w3.org/2000/svg">
<mask id="mask0_294_469" style="mask-type:alpha" maskUnits="userSpaceOnUse" x="0" y="0" width="746" height="725">
<rect width="746" height="725" fill="#D9D9D9"/>
</mask>
<g mask="url(#mask0_294_469)">
<path d="M93.5601 540.607L-0.0475922 729.496C-41.2225 812.582 19.2247 910 111.954 910H668C737.036 910 793 854.036 793 785V117.417C793 47.1765 715.715 4.37475 656.175 41.6418C641.024 51.1255 629.063 64.9336 621.838 81.2831L482.479 396.637C462.473 441.908 417.639 471.111 368.145 471.111H205.561C158.055 471.111 114.655 498.04 93.5601 540.607Z" fill="#5B2222" fill-opacity="0.5"/>
<path d="M149.06 630.607L55.4524 819.496C14.2775 902.582 74.7247 1000 167.454 1000H723.5C792.536 1000 848.5 944.036 848.5 875V207.417C848.5 137.176 771.215 94.3747 711.675 131.642C696.524 141.125 684.563 154.934 677.338 171.283L537.979 486.637C517.973 531.908 473.139 561.111 423.645 561.111H261.061C213.555 561.111 170.155 588.04 149.06 630.607Z" fill="#5B2222" fill-opacity="0.5"/>
<path d="M221.06 732.607L127.452 921.496C86.2775 1004.58 146.725 1102 239.454 1102H795.5C864.536 1102 920.5 1046.04 920.5 977V309.417C920.5 239.176 843.215 196.375 783.675 233.642C768.524 243.125 756.563 256.934 749.338 273.283L609.979 588.637C589.973 633.908 545.139 663.111 495.645 663.111H333.061C285.555 663.111 242.155 690.04 221.06 732.607Z" fill="#5B2222" fill-opacity="0.5"/>
</g>
</svg>
