<svg xmlns="http://www.w3.org/2000/svg" width="37" height="37" viewBox="0 0 37 37" fill="none">
  <path d="M23.1481 3.9082L19.4481 7.6082L18.9394 8.14008L19.4481 8.67195L23.1481 12.372L24.2119 11.3082L21.7837 8.88008H28.86C29.6867 8.88008 30.34 9.53336 30.34 10.3601V26.6401C30.34 27.4668 29.6867 28.1201 28.86 28.1201H19.98V29.6001H28.86C30.4874 29.6001 31.82 28.2675 31.82 26.6401V10.3601C31.82 8.73266 30.4874 7.40008 28.86 7.40008H21.7837L24.2119 4.97195L23.1481 3.9082ZM8.13999 7.40008C6.51257 7.40008 5.17999 8.73266 5.17999 10.3601V26.6401C5.17999 28.2675 6.51257 29.6001 8.13999 29.6001H15.2162L12.7881 32.0282L13.8519 33.092L17.5519 29.392L18.0606 28.8601L17.5519 28.3282L13.8519 24.6282L12.7881 25.692L15.2162 28.1201H8.13999C7.31327 28.1201 6.65999 27.4668 6.65999 26.6401V10.3601C6.65999 9.53336 7.31327 8.88008 8.13999 8.88008H17.02V7.40008H8.13999Z" fill="currentColor"/>
</svg>