<svg width="15" height="16" viewBox="0 0 15 16" fill="none" xmlns="http://www.w3.org/2000/svg">
<path d="M7.20003 1.70001C6.84729 1.70001 6.50745 1.91798 6.28128 2.27189C6.27307 2.28361 6.26018 2.28829 6.25315 2.30001L2.90627 6.89376C2.57112 7.36368 2.40002 7.90978 2.40002 8.47814V11.3C2.40002 12.7836 3.61643 14 5.10002 14H10.8C11.2547 14 11.6309 13.816 11.8875 13.5688C12.1442 13.3215 12.3 13.0168 12.3 12.7063C12.3 12.4496 12.2403 12.2387 12.1782 12.0781C12.4699 11.9211 12.9 11.6235 12.9 10.9438C12.9 10.516 12.6926 10.236 12.4875 10.0531C12.6926 9.85158 12.9 9.55509 12.9 9.10626C12.9 8.43361 12.4735 8.15822 12.225 8.02814C12.2508 7.87345 12.3 7.64611 12.3 7.37189C12.3 6.78478 11.7457 6.23283 10.9313 6.22814C10.9289 6.22814 10.9242 6.22814 10.9219 6.22814C9.99026 6.20118 7.74026 6.20001 7.18127 6.20001C7.28088 5.97618 7.35354 5.82033 7.53753 5.40314C7.8176 4.76798 8.11174 4.10236 8.20315 3.84689C8.20315 3.84572 8.20315 3.83868 8.20315 3.83751C8.28401 3.62306 8.40003 3.41095 8.40003 3.07814C8.40003 2.61525 8.21956 2.25431 7.97815 2.02814C7.73674 1.80197 7.45549 1.70001 7.20003 1.70001ZM7.20003 2.30001C7.27385 2.30001 7.43909 2.3504 7.56565 2.46876C7.69221 2.58712 7.80002 2.76173 7.80002 3.07814C7.80002 3.28204 7.73909 3.36759 7.64065 3.63126C7.64065 3.63478 7.64065 3.63712 7.64065 3.64064C7.58088 3.80822 7.27502 4.52306 6.99377 5.15939C6.71252 5.79572 6.45003 6.37814 6.45003 6.37814C6.40901 6.47072 6.41721 6.57736 6.47229 6.6629C6.52737 6.74728 6.62112 6.79884 6.7219 6.80001C6.7219 6.80001 9.91057 6.79884 10.9125 6.82814C10.916 6.82814 10.9184 6.82814 10.9219 6.82814C11.4809 6.82814 11.7 7.18204 11.7 7.37189C11.7 7.61212 11.6157 8.13126 11.6157 8.13126C11.5934 8.27423 11.6766 8.41134 11.8125 8.45939C11.8125 8.45939 12.3 8.61642 12.3 9.10626C12.3 9.54572 11.8594 9.80939 11.8594 9.80939C11.7563 9.86447 11.6942 9.97345 11.7 10.0906C11.7059 10.2067 11.7785 10.3098 11.8875 10.3531C11.8875 10.3531 12.3 10.5043 12.3 10.9438C12.3 11.4383 11.6813 11.675 11.6813 11.675C11.5922 11.7067 11.5231 11.7793 11.4961 11.8695C11.468 11.9598 11.4844 12.0582 11.5407 12.1344C11.5407 12.1344 11.7 12.35 11.7 12.7063C11.7 12.786 11.6309 12.9875 11.475 13.1375C11.3192 13.2875 11.0953 13.4 10.8 13.4H5.10002C3.94338 13.4 3.00002 12.4567 3.00002 11.3V8.47814C3.00002 8.02931 3.13245 7.61915 3.39377 7.25001C3.39495 7.24767 3.3926 7.24298 3.39377 7.24064L6.75002 2.62814C6.75706 2.61876 6.76292 2.60939 6.76877 2.60001C6.90354 2.37618 7.08518 2.30001 7.20003 2.30001Z" fill="#178242"/>
</svg>
