<svg width="15" height="16" viewBox="0 0 15 16" fill="none" xmlns="http://www.w3.org/2000/svg">
<path d="M5.10002 2C3.61643 2 2.40002 3.21641 2.40002 4.7V7.52187C2.40002 8.09023 2.57112 8.63633 2.90627 9.10625L6.25315 13.7C6.26018 13.7117 6.27307 13.7164 6.28127 13.7281C6.50745 14.082 6.84729 14.3 7.20002 14.3C7.45549 14.3 7.73674 14.198 7.97815 13.9719C8.21956 13.7457 8.40002 13.3848 8.40002 12.9219C8.40002 12.5855 8.28284 12.4004 8.20315 12.1625C8.11292 11.9094 7.81877 11.2355 7.53752 10.5969C7.35354 10.1797 7.28088 10.0238 7.18127 9.8C7.74026 9.8 9.99026 9.79883 10.9219 9.77187C10.9254 9.77187 10.9278 9.77187 10.9313 9.77187C11.7457 9.76719 12.3 9.21523 12.3 8.62812C12.3 8.35391 12.2508 8.12656 12.225 7.97187C12.4735 7.8418 12.9 7.56641 12.9 6.89375C12.9 6.44492 12.6926 6.14844 12.4875 5.94687C12.6926 5.76406 12.9 5.48398 12.9 5.05625C12.9 4.37656 12.4699 4.07891 12.1782 3.92187C12.2403 3.76133 12.3 3.55039 12.3 3.29375C12.3 2.9832 12.1442 2.67852 11.8875 2.43125C11.6309 2.18398 11.2547 2 10.8 2H5.10002ZM5.10002 2.6H10.8C11.0953 2.6 11.3192 2.7125 11.475 2.8625C11.6309 3.0125 11.7 3.21406 11.7 3.29375C11.7 3.65 11.5406 3.86562 11.5406 3.86562C11.4844 3.9418 11.468 4.04023 11.4961 4.13047C11.5231 4.2207 11.5922 4.29336 11.6813 4.325C11.6813 4.325 12.3 4.56172 12.3 5.05625C12.3 5.4957 11.8875 5.64687 11.8875 5.64687C11.7785 5.69023 11.7059 5.79336 11.7 5.90937C11.6942 6.02656 11.7563 6.13555 11.8594 6.19062C11.8594 6.19062 12.3 6.4543 12.3 6.89375C12.3 7.38359 11.8125 7.54062 11.8125 7.54062C11.6766 7.58867 11.5934 7.72578 11.6157 7.86875C11.6157 7.86875 11.7 8.38789 11.7 8.62812C11.7 8.81797 11.4809 9.17187 10.9219 9.17187C10.9184 9.17187 10.916 9.17187 10.9125 9.17187C9.91057 9.20117 6.7219 9.2 6.7219 9.2C6.62112 9.20117 6.52737 9.25273 6.47229 9.33711C6.41721 9.42266 6.40901 9.5293 6.45002 9.62187C6.45002 9.62187 6.71252 10.2043 6.99377 10.8406C7.27502 11.477 7.58088 12.1918 7.64065 12.3594H7.63127C7.73206 12.6605 7.80002 12.718 7.80002 12.9219C7.80002 13.2383 7.69221 13.4129 7.56565 13.5312C7.43909 13.6496 7.27385 13.7 7.20002 13.7C7.08518 13.7 6.90354 13.6238 6.76877 13.4C6.76292 13.3906 6.75706 13.3812 6.75002 13.3719L3.39377 8.75937C3.3926 8.75703 3.39495 8.75234 3.39377 8.75C3.13245 8.38086 3.00002 7.9707 3.00002 7.52187V4.7C3.00002 3.54336 3.94338 2.6 5.10002 2.6Z" fill="#AF251D"/>
</svg>
